<svg xmlns="http://www.w3.org/2000/svg"  viewBox="0 0 48 48" width="480px" height="480px"><path fill="#ef4823" d="M43.94,33.55c-0.38,1.38-0.89,2.81-1.97,3.75c-1.1,0.95-2.61,1.26-4.05,1.48	c-8.87,1.35-17.92,0.59-26.86-0.16c-1.42-0.12-2.92-0.27-4.09-1.08c-1.22-0.85-1.89-2.23-2.57-5.25C3.69,29.15,3.37,25.9,3.5,21.5	c0.19-6.73,1.2-8.17,1.74-8.82c1.17-1.4,2.72-2.15,3.66-2.6c2.46-1.19,4.66-1.37,5.87-1.45c9.37-0.65,12.62-0.94,23,0.94	c1.3,0.23,2.67,0.53,3.66,1.41c0.78,0.71,1.22,1.71,1.59,2.69C45.4,19.98,45.73,27.05,43.94,33.55z"/><path fill="#d6e5e5" d="M29.84,30.487c-3.543,0.158-7.086,0.315-10.629,0.473c-0.263-3.12-0.526-6.24-0.789-9.36	c3.988,0.1,7.975,0.201,11.963,0.301C30.203,24.763,30.021,27.625,29.84,30.487z"/><path fill="#d6e5e5" d="M34.539,21.972c-1.632,0.933-3.564,1.897-5.79,2.762c-1.667,0.648-3.241,1.14-4.681,1.518	C20.712,24.501,17.356,22.751,14,21c1.33-0.743,2.892-1.508,4.681-2.198c2.333-0.9,4.486-1.454,6.319-1.802	c2.263,0.582,5.053,1.634,7.814,3.607C33.44,21.055,34.014,21.513,34.539,21.972z"/><path fill="#010101" d="M43.458,33.417c-0.29,1.037-0.628,2.114-1.306,2.971c-0.656,0.828-1.595,1.283-2.595,1.557 c-2.355,0.644-4.916,0.784-7.343,0.932c-5.095,0.311-10.204,0.084-15.289-0.287c-2.439-0.178-4.953-0.239-7.366-0.637 c-1.702-0.281-2.973-1.028-3.704-2.603c-0.799-1.721-1.138-3.722-1.43-5.585c-0.325-2.072-0.447-4.173-0.452-6.269 c-0.005-2.145,0.06-4.313,0.344-6.442c0.14-1.047,0.319-2.145,0.741-3.122c0.338-0.783,0.72-1.185,1.395-1.768 c1.469-1.271,3.457-2.128,5.322-2.593c1.826-0.456,3.727-0.494,5.597-0.62c1.8-0.122,3.602-0.238,5.405-0.289 c3.499-0.099,6.973,0.149,10.435,0.657c1.119,0.164,2.235,0.348,3.348,0.542c1.074,0.188,2.184,0.335,3.21,0.72 c2.219,0.833,2.87,3.287,3.484,5.353c1.352,4.542,1.686,9.4,0.939,14.082C44.011,31.162,43.762,32.296,43.458,33.417 c-0.169,0.622,0.796,0.887,0.964,0.266c1.302-4.797,1.499-9.854,0.587-14.74c-0.436-2.337-1.044-4.874-2.199-6.971 c-1.142-2.074-3.22-2.583-5.393-2.971c-4.039-0.72-8.113-1.315-12.223-1.362c-1.835-0.021-3.67,0.056-5.502,0.163 C17.707,7.918,15.703,8,13.726,8.219c-2.102,0.233-4.085,0.871-5.951,1.865c-1.226,0.653-2.45,1.522-3.23,2.694 c-0.454,0.683-0.704,1.505-0.888,2.297c-0.399,1.715-0.532,3.498-0.614,5.252C2.831,24.89,3.044,29.54,4.303,33.955 c0.413,1.45,0.992,2.948,2.236,3.885c1.821,1.372,4.433,1.275,6.596,1.453c5.452,0.45,10.922,0.844,16.396,0.7 c2.69-0.071,5.375-0.277,8.039-0.659c2.163-0.31,4.367-0.79,5.651-2.729c0.584-0.882,0.919-1.91,1.202-2.921 C44.596,33.062,43.631,32.797,43.458,33.417z"/><path fill="#010101" d="M14.193,21.131c2.714-0.911,5.428-1.822,8.143-2.733c0.658-0.221,1.314-0.455,1.977-0.663 c0.783-0.245,1.348-0.135,2.074,0.216c1.251,0.605,2.493,1.23,3.735,1.853c0.584,0.293,1.168,0.588,1.752,0.884 c0.328,0.166,0.656,0.333,0.984,0.5c0.276,0.141,0.764,0.286,0.982,0.503c0.165,0.164,0.231,0.111,0.047,0.306 c-0.097,0.102-0.248,0.151-0.371,0.209c-0.306,0.144-0.626,0.264-0.938,0.394c-0.691,0.288-1.382,0.577-2.074,0.865 c-1.344,0.561-2.688,1.121-4.032,1.682c-0.307,0.128-0.614,0.256-0.922,0.384c-0.258,0.107-0.62,0.347-0.9,0.367 c-0.272,0.02-0.532-0.185-0.769-0.308c-0.368-0.191-0.736-0.382-1.104-0.572c-1.398-0.725-2.796-1.45-4.194-2.175 c-0.736-0.382-1.472-0.763-2.207-1.145c-0.368-0.191-0.736-0.382-1.104-0.572c-0.228-0.118-0.866-0.32-0.989-0.55 c0.017,0.128,0.034,0.257,0.05,0.385c-0.003,0.002-0.005,0.004-0.008,0.005c-0.162,0.043-0.324,0.086-0.486,0.129 c0.038,0.006,0.075,0.012,0.113,0.019c0.63,0.104,0.9-0.859,0.266-0.964c-0.491-0.081-0.978,0.251-0.848,0.812 c0.139,0.603,1.157,0.903,1.619,1.143c1.545,0.801,3.09,1.603,4.635,2.404c0.809,0.42,1.619,0.84,2.428,1.259 c0.691,0.358,1.45,0.906,2.209,1.106c0.677,0.178,1.411-0.318,2.016-0.57c0.845-0.352,1.69-0.705,2.534-1.057 c1.689-0.704,3.39-1.385,5.069-2.114c1.079-0.469,1.705-1.58,0.465-2.305c-1.543-0.902-3.215-1.638-4.814-2.435 c-0.732-0.365-1.464-0.727-2.198-1.088c-0.655-0.322-1.343-0.721-2.092-0.743c-0.876-0.026-1.767,0.402-2.579,0.674 c-0.944,0.317-1.888,0.634-2.832,0.951c-1.967,0.66-3.934,1.321-5.901,1.981C13.32,20.371,13.58,21.337,14.193,21.131 L14.193,21.131z"/><path fill="#010101" d="M18.182,23.684c0.176,2.425,0.352,4.851,0.529,7.276c0.02,0.272,0.213,0.497,0.5,0.5 c3.068,0.037,6.135-0.09,9.188-0.391c0.517-0.051,1.278,0.002,1.672-0.401c0.356-0.364,0.342-0.941,0.375-1.411 c0.106-1.526,0.154-3.055,0.15-4.584c-0.002-0.643-1.002-0.645-1,0c0.003,1.275-0.028,2.549-0.101,3.821 c-0.019,0.327-0.038,0.654-0.064,0.981c-0.022,0.275,0.025,0.429-0.232,0.51c-0.601,0.19-1.398,0.144-2.028,0.196 c-2.647,0.221-5.303,0.311-7.959,0.279c0.167,0.167,0.333,0.333,0.5,0.5c-0.176-2.425-0.352-4.851-0.529-7.276 C19.136,23.045,18.136,23.04,18.182,23.684L18.182,23.684z"/><path fill="#010101" d="M32.83,23.385c0.045,1.351,0.09,2.702,0.135,4.054c0.021,0.642,1.021,0.645,1,0 c-0.045-1.351-0.09-2.702-0.135-4.054C33.809,22.744,32.808,22.741,32.83,23.385L32.83,23.385z"/></svg>