<svg xmlns="http://www.w3.org/2000/svg"  viewBox="0 0 32 32" width="512px" height="512px" baseProfile="basic"><circle cx="14" cy="14" r="12" fill="#79b5ba"/><path fill="#302529" d="M14,27C6.832,27,1,21.168,1,14S6.832,1,14,1s13,5.832,13,13S21.168,27,14,27z M14,3	C7.935,3,3,7.935,3,14s4.935,11,11,11s11-4.935,11-11S20.065,3,14,3z"/><path fill="#fff" d="M6,14H5c0-4.962,4.038-9,9-9v1C9.589,6,6,9.589,6,14z"/><rect width="2" height="10.607" x="25.25" y="20.947" fill="#302529" transform="rotate(-45.001 26.25 26.25)"/></svg>