<svg xmlns="http://www.w3.org/2000/svg"  viewBox="0 0 32 32" width="512px" height="512px" baseProfile="basic"><path fill="#7498a6" d="M23.438,12.562c-1.789-0.485-3.701-2.421-4.25-4.25l4.748-4.748C23.026,3.204,22.038,3,21,3	c-4.418,0-8,3.582-8,8c0,1.37,0.346,2.659,0.952,3.786l-9.301,6.976C3.65,22.489,3,23.669,3,25c0,2.209,1.791,4,4,4	c1.331,0,2.511-0.65,3.238-1.651l6.976-9.301C18.341,18.654,19.63,19,21,19c4.418,0,8-3.582,8-8c0-1.173-0.259-2.284-0.712-3.288	L23.438,12.562z"/><path fill="#fff" d="M7,27c-1.103,0-2-0.897-2-2s0.897-2,2-2s2,0.897,2,2S8.103,27,7,27z M7,24c-0.552,0-1,0.448-1,1	s0.448,1,1,1s1-0.448,1-1S7.552,24,7,24z"/><path fill="#fff" d="M17.006,17.933c-1.22-0.704-2.237-1.721-2.939-2.938l0.866-0.5c0.615,1.066,1.505,1.956,2.573,2.573	L17.006,17.933z"/><path fill="#302529" d="M7,30c-2.757,0-5-2.243-5-5c0-1.595,0.771-3.107,2.063-4.047l8.635-6.477	C12.24,13.38,12,12.193,12,11c0-4.963,4.038-9,9-9c1.128,0,2.239,0.213,3.304,0.634l1.417,0.56l-5.368,5.367	c0.548,1.169,1.703,2.331,2.827,2.845l5.424-5.423L29.199,7.3C29.73,8.477,30,9.722,30,11c0,4.963-4.038,9-9,9	c-1.193,0-2.38-0.239-3.476-0.698l-6.486,8.647C10.108,29.229,8.595,30,7,30z M21,4c-3.86,0-7,3.141-7,7	c0,1.17,0.28,2.284,0.833,3.313c0.159,0.296,0.448,0.725,0.448,0.725l-10.03,7.524C4.463,23.135,4,24.043,4,25c0,1.654,1.346,3,3,3	c0.957,0,1.865-0.463,2.429-1.238l7.533-10.043c0,0,0.429,0.289,0.726,0.448C18.701,17.712,19.846,18,21,18c3.86,0,7-3.141,7-7	c0-0.485-0.05-0.966-0.15-1.437l-4.115,4.114l-0.559-0.151c-2.116-0.572-4.289-2.737-4.946-4.927l-0.172-0.572l3.953-3.953	C21.677,4.025,21.339,4,21,4z"/></svg>